<svg xmlns="http://www.w3.org/2000/svg" viewBox="0 0 1200 630" role="img" aria-labelledby="title description">
 <title id="title">K-VERSATION</title><desc id="description">Korea, through people. Conversations and original writing.</desc>
 <rect width="1200" height="630" fill="#f2f0e8"/><path d="M64 64h1072M64 566h1072" stroke="#15171a" stroke-opacity=".2"/>
 <g transform="translate(72 225) scale(1.35)" fill="#2d4a68">
  <path d="M0 8h13v31L42 8h17L25 44l38 44H46L13 51v37H0Z"/><path d="M140 8h15l25 60 25-60h15l-34 80h-13Z"/><path d="M226 8h59v12h-45v21h39v12h-39v23h46v12h-60Z"/><path fill-rule="evenodd" d="M296 8h33c20 0 31 9 31 25 0 11-6 19-17 23l21 32h-17l-18-29h-19v29h-14Zm14 12v27h18c11 0 17-5 17-14s-6-13-17-13Z"/><path d="M373 65c8 8 18 12 29 12 12 0 19-4 19-11 0-6-5-9-21-13-20-5-29-12-29-24 0-14 13-23 32-23 13 0 24 4 32 11l-8 10c-7-6-15-9-25-9-11 0-17 4-17 10 0 5 5 8 21 12 21 5 30 13 30 25 0 15-13 24-34 24-16 0-29-5-38-14Z"/><path fill-rule="evenodd" d="M472 8h15l35 80h-15l-8-20h-39l-8 20h-15Zm-7 48h29l-14-34Z"/><path d="M512 8h72v13h-29v67h-14V21h-29ZM592 8h14v80h-14Z"/><path fill-rule="evenodd" d="M657 6c26 0 44 17 44 42s-18 42-44 42-44-17-44-42 18-42 44-42Zm0 13c-17 0-29 12-29 29s12 29 29 29 29-12 29-29-12-29-29-29Z"/><path d="M709 8h14l43 57V8h14v80h-13l-44-58v58h-14Z"/>
 </g>
 <g transform="translate(72 225) scale(1.35)" fill="none" stroke="#2d4a68" stroke-width="3"><circle cx="78" cy="48" r="7"/><circle cx="122" cy="48" r="7"/><path d="M85 48h30"/><path d="M100 36v24" opacity=".42"/></g>
 <text x="72" y="505" fill="#15171a" font-family="Arial, sans-serif" font-size="20" letter-spacing="4">KOREA, THROUGH PEOPLE</text><text x="1128" y="505" text-anchor="end" fill="#656970" font-family="Arial, sans-serif" font-size="15" letter-spacing="2">SEOUL ↔ CALIFORNIA</text>
</svg>
